{"glyphs":{"0":{"ha":833,"x_min":85,"x_max":751,"o":"m 418 -14 q 203 48 276 -14 q 108 219 131 110 q 85 508 85 328 q 109 788 85 678 q 207 959 134 897 q 418 1021 279 1021 q 630 959 557 1021 q 727 788 702 897 q 751 508 751 679 q 728 219 751 328 q 633 48 705 110 q 418 -14 560 -14 m 418 86 q 557 138 510 86 q 619 279 604 190 q 635 508 635 368 q 620 736 635 650 q 559 871 606 822 q 418 921 512 921 q 277 871 324 921 q 216 736 230 822 q 201 508 201 650 q 217 279 201 368 q 279 138 232 190 q 418 86 326 86 m 504 508 l 418 419 l 332 508 l 418 607 l 504 508 z "},"1":{"ha":833,"x_min":111,"x_max":724,"o":"m 133 0 l 133 103 l 379 103 l 379 826 q 245 716 323 770 q 111 646 168 661 l 111 764 q 261 867 181 793 q 394 1007 342 940 l 496 1007 l 496 103 l 724 103 l 724 0 l 133 0 z "},"2":{"ha":833,"x_min":107,"x_max":719,"o":"m 107 117 l 138 145 q 347 343 255 251 q 511 544 438 436 q 583 742 583 653 q 562 835 583 795 q 503 897 541 875 q 418 918 466 918 q 324 894 365 918 q 260 826 283 870 q 238 725 238 783 l 115 725 q 158 886 117 819 q 268 987 199 953 q 422 1021 338 1021 q 566 991 501 1021 q 672 900 632 961 q 711 751 711 840 q 648 552 711 658 q 501 354 584 445 q 298 145 418 263 l 247 96 l 719 96 l 719 -7 l 107 -7 l 107 117 z "},"3":{"ha":833,"x_min":92,"x_max":743,"o":"m 446 617 q 673 498 602 589 q 743 281 743 406 q 694 120 743 188 q 567 19 645 53 q 406 -15 490 -15 q 251 18 323 -15 q 136 118 180 51 q 92 281 92 185 l 214 281 q 242 177 214 222 q 316 109 270 133 q 413 86 361 86 q 515 110 467 86 q 592 178 563 134 q 621 281 621 222 q 580 416 621 359 q 465 501 538 472 q 299 531 392 531 l 299 635 l 578 903 l 115 903 l 115 1007 l 724 1007 l 724 889 l 446 617 z "},"4":{"ha":833,"x_min":56,"x_max":760,"o":"m 617 0 l 496 0 l 496 217 l 56 217 l 56 328 l 457 1007 l 617 1007 l 617 319 l 760 319 l 760 217 l 617 217 l 617 0 m 497 864 l 183 319 l 497 319 l 497 864 z "},"5":{"ha":833,"x_min":113,"x_max":726,"o":"m 410 -12 q 260 15 327 -12 q 152 100 192 42 q 113 246 113 158 l 235 246 q 284 127 235 167 q 408 88 333 88 q 516 121 472 88 q 581 212 560 155 q 603 338 603 269 q 583 455 603 401 q 522 539 563 508 q 422 571 481 571 q 311 531 359 571 q 247 424 263 492 l 125 424 l 197 1007 l 699 1007 l 699 900 l 308 900 l 265 594 q 343 659 301 640 q 444 679 385 679 q 596 634 532 679 q 693 510 660 588 q 726 335 726 431 q 686 154 726 233 q 575 31 647 75 q 410 -12 503 -12 z "},"6":{"ha":833,"x_min":96,"x_max":739,"o":"m 431 -17 q 169 119 243 -17 q 96 489 96 254 q 170 875 96 729 q 435 1021 244 1021 q 565 997 510 1021 q 661 932 619 972 l 581 858 q 432 918 531 918 q 295 850 342 918 q 233 690 248 782 q 215 489 217 598 q 310 616 253 572 q 443 661 367 661 q 597 613 529 661 q 702 484 665 565 q 739 310 739 403 q 700 140 739 215 q 592 25 662 66 q 431 -17 522 -17 m 428 86 q 568 146 519 86 q 617 307 617 206 q 597 426 617 372 q 535 513 576 481 q 433 544 494 544 q 327 512 372 544 q 257 425 281 480 q 233 304 233 370 q 257 191 233 241 q 324 114 280 142 q 428 86 368 86 z "},"7":{"ha":833,"x_min":124,"x_max":732,"o":"m 325 0 l 190 0 l 597 893 l 124 893 l 124 1007 l 732 1007 l 732 894 l 325 0 z "},"8":{"ha":833,"x_min":88,"x_max":747,"o":"m 575 533 q 699 437 651 500 q 747 288 747 374 q 701 118 747 185 q 581 21 655 51 q 418 -10 506 -10 q 255 20 330 -10 q 134 114 180 50 q 88 275 88 178 q 134 436 88 369 q 257 533 181 503 q 132 758 132 600 q 173 903 132 844 q 280 992 215 963 q 418 1021 346 1021 q 560 993 495 1021 q 666 908 626 965 q 706 768 706 851 q 671 625 706 686 q 575 533 636 565 m 418 926 q 289 881 335 926 q 243 754 243 835 q 288 642 243 683 q 418 601 333 601 q 547 643 500 601 q 594 757 594 685 q 549 881 594 836 q 418 926 503 926 m 418 90 q 520 113 473 90 q 596 180 567 135 q 625 288 625 225 q 597 395 625 351 q 522 459 569 438 q 418 481 475 481 q 313 458 360 481 q 238 391 266 435 q 210 285 210 347 q 238 179 210 223 q 313 113 266 135 q 418 90 360 90 z "},"9":{"ha":833,"x_min":92,"x_max":740,"o":"m 400 -12 q 264 11 325 -12 q 162 78 202 34 q 111 183 122 122 l 211 221 q 280 119 234 151 q 400 88 326 88 q 548 158 499 88 q 610 319 597 229 q 626 531 623 408 q 528 423 590 460 q 386 386 465 386 q 235 428 302 386 q 130 543 167 469 q 92 707 92 616 q 134 871 92 799 q 251 982 177 942 q 415 1021 324 1021 q 615 961 543 1021 q 713 799 686 901 q 740 549 740 696 q 714 270 740 392 q 612 67 687 147 q 400 -12 537 -12 m 404 482 q 514 510 469 482 q 583 589 560 539 q 607 706 607 640 q 583 818 607 769 q 515 894 559 867 q 413 922 471 922 q 308 894 353 922 q 239 817 263 867 q 214 703 214 767 q 236 590 214 640 q 302 511 259 540 q 404 482 344 482 z "}," ":{"ha":833,"x_min":0,"x_max":0,"o":""},"A":{"ha":833,"x_min":63,"x_max":774,"o":"m 192 0 l 63 0 l 347 1007 l 486 1007 l 774 0 l 642 0 l 567 282 l 264 282 l 192 0 m 414 879 l 293 382 l 542 382 l 419 879 l 414 879 z "},"B":{"ha":833,"x_min":115,"x_max":750,"o":"m 115 0 l 115 1007 l 378 1007 q 578 947 500 1007 q 657 753 657 887 q 644 644 657 687 q 605 575 631 602 q 536 526 578 549 q 694 448 639 506 q 750 279 750 390 q 650 62 750 124 q 399 0 551 0 l 115 0 m 333 569 q 481 607 426 569 q 536 742 536 644 q 485 866 536 830 q 350 901 435 901 l 232 901 l 232 569 l 333 569 m 364 103 q 498 114 442 103 q 590 165 553 125 q 628 285 628 205 q 566 430 628 388 q 400 471 504 471 l 232 471 l 232 103 l 364 103 z "},"C":{"ha":833,"x_min":93,"x_max":747,"o":"m 458 -25 q 184 105 275 -25 q 93 489 93 235 q 137 778 93 660 q 264 958 181 897 q 468 1019 348 1019 q 633 988 558 1019 q 747 886 708 957 l 671 829 q 572 901 620 883 q 464 919 524 919 q 280 809 335 919 q 224 496 224 699 q 245 272 224 363 q 318 131 267 181 q 460 81 370 81 q 583 105 531 81 q 672 186 635 129 l 747 118 q 628 10 703 45 q 458 -25 553 -25 z "},"D":{"ha":833,"x_min":119,"x_max":756,"o":"m 119 0 l 119 1007 l 306 1007 q 560 959 462 1007 q 707 802 658 911 q 756 510 756 694 q 710 217 756 328 q 564 53 665 106 q 294 0 463 0 l 119 0 m 304 101 q 490 138 420 101 q 595 264 560 175 q 629 510 629 353 q 597 738 629 651 q 496 864 564 824 q 318 904 428 904 l 242 904 l 242 101 l 304 101 z "},"E":{"ha":833,"x_min":122,"x_max":722,"o":"m 722 0 l 122 0 l 122 1007 l 704 1007 l 704 903 l 244 903 l 244 575 l 685 575 l 685 474 l 244 474 l 244 101 l 722 101 l 722 0 z "},"F":{"ha":833,"x_min":138,"x_max":740,"o":"m 260 0 l 138 0 l 138 1007 l 740 1007 l 740 903 l 260 903 l 260 549 l 718 549 l 718 447 l 260 447 l 260 0 z "},"G":{"ha":833,"x_min":82,"x_max":749,"o":"m 433 -14 q 217 57 294 -14 q 111 245 140 128 q 82 524 82 362 q 164 890 82 760 q 446 1021 247 1021 q 560 1003 503 1021 q 665 948 617 986 q 738 853 713 910 l 642 797 q 554 893 603 867 q 446 918 505 918 q 294 865 347 918 q 223 727 241 812 q 204 526 204 642 q 219 300 204 392 q 288 149 235 209 q 446 89 340 89 q 595 182 549 89 q 642 428 642 276 l 400 428 l 400 525 l 749 525 l 749 0 l 644 0 l 644 107 l 640 107 q 433 -14 587 -14 z "},"H":{"ha":833,"x_min":132,"x_max":701,"o":"m 253 0 l 132 0 l 132 1007 l 253 1007 l 253 579 l 581 579 l 581 1007 l 701 1007 l 701 0 l 581 0 l 581 469 l 253 469 l 253 0 z "},"I":{"ha":833,"x_min":156,"x_max":676,"o":"m 676 0 l 156 0 l 156 97 l 357 97 l 357 910 l 182 910 l 182 1007 l 650 1007 l 650 910 l 479 910 l 479 97 l 676 97 l 676 0 z "},"J":{"ha":833,"x_min":100,"x_max":688,"o":"m 396 -14 q 244 20 311 -14 q 139 118 177 53 q 100 272 100 183 l 229 272 q 251 175 229 217 q 311 111 272 134 q 399 89 349 89 q 523 143 478 89 q 567 304 567 198 l 567 894 l 175 894 l 175 1007 l 688 1007 l 688 301 q 615 64 688 142 q 396 -14 542 -14 z "},"K":{"ha":833,"x_min":133,"x_max":796,"o":"m 382 554 l 796 0 l 643 0 l 254 538 l 254 0 l 133 0 l 133 1008 l 254 1008 l 254 553 l 604 1008 l 753 1008 l 382 554 z "},"L":{"ha":833,"x_min":132,"x_max":747,"o":"m 747 0 l 132 0 l 132 1010 l 254 1010 l 254 101 l 747 101 l 747 0 z "},"M":{"ha":833,"x_min":85,"x_max":749,"o":"m 416 440 l 546 1007 l 749 1007 l 749 0 l 629 0 l 629 842 l 620 830 l 467 278 l 365 278 l 213 830 l 204 842 l 204 0 l 85 0 l 85 1007 l 286 1007 l 416 440 z "},"N":{"ha":833,"x_min":124,"x_max":701,"o":"m 243 0 l 124 0 l 124 1007 l 297 1007 l 579 163 l 579 1007 l 701 1007 l 701 0 l 535 0 l 243 828 l 243 0 z "},"O":{"ha":833,"x_min":44,"x_max":786,"o":"m 417 -17 q 209 54 292 -17 q 85 245 126 124 q 44 521 44 367 q 89 783 44 670 q 218 958 133 896 q 417 1021 302 1021 q 615 959 531 1021 q 742 783 698 897 q 786 521 786 670 q 746 245 786 367 q 624 54 706 124 q 417 -17 541 -17 m 413 100 q 540 153 486 100 q 623 301 594 207 q 651 514 651 395 q 620 716 651 624 q 534 860 588 807 q 414 913 479 913 q 295 860 349 913 q 210 716 242 807 q 179 514 179 624 q 206 301 179 394 q 286 153 233 207 q 413 100 339 100 z "},"P":{"ha":833,"x_min":118,"x_max":757,"o":"m 118 0 l 118 1007 l 411 1007 q 757 715 757 1007 q 661 491 757 558 q 417 424 565 424 l 240 424 l 240 0 l 118 0 m 365 525 q 507 538 453 525 q 595 592 562 550 q 628 717 628 633 q 598 833 628 792 q 519 889 568 874 q 400 904 469 904 l 240 904 l 240 525 l 365 525 z "},"Q":{"ha":833,"x_min":44,"x_max":786,"o":"m 480 -8 q 518 -63 488 -42 q 592 -85 547 -85 l 786 -85 l 786 -206 l 561 -206 q 461 -180 508 -206 q 387 -108 415 -153 q 356 -8 358 -63 q 118 156 192 15 q 44 521 44 298 q 90 782 44 669 q 220 958 136 895 q 417 1021 305 1021 q 612 958 528 1021 q 741 782 696 895 q 786 521 786 669 q 714 158 786 299 q 480 -8 641 17 m 179 521 q 413 94 179 94 q 595 210 538 94 q 651 521 651 325 q 622 715 651 626 q 537 858 592 805 q 413 911 483 911 q 289 860 342 911 q 208 721 236 810 q 179 521 179 632 z "},"R":{"ha":833,"x_min":121,"x_max":768,"o":"m 768 -6 l 636 -6 l 418 446 l 410 446 l 243 446 l 243 0 l 121 0 l 121 1007 l 424 1007 q 576 976 503 1007 q 695 883 649 946 q 742 728 742 820 q 686 560 742 626 q 540 465 631 493 l 768 -6 m 243 553 l 375 553 q 501 565 450 553 q 584 616 553 578 q 615 729 615 655 q 556 865 615 826 q 404 904 497 904 l 243 904 l 243 553 z "},"S":{"ha":833,"x_min":76,"x_max":746,"o":"m 150 232 q 280 126 214 164 q 404 88 345 88 q 520 106 468 88 q 603 165 572 125 q 635 264 635 204 q 605 353 635 319 q 532 408 576 388 q 409 452 488 427 q 335 476 355 469 q 156 577 222 516 q 89 742 89 638 q 135 897 89 834 q 258 991 182 960 q 421 1021 333 1021 q 544 1003 490 1021 q 640 955 597 986 q 726 876 682 924 l 647 806 q 543 888 601 858 q 419 918 485 918 q 319 899 368 918 q 238 842 269 880 q 206 750 206 804 q 238 657 206 694 q 319 598 271 620 q 451 548 367 576 q 605 488 547 517 q 705 408 664 460 q 746 276 746 357 q 704 125 746 192 q 586 22 663 59 q 411 -15 510 -15 q 76 157 219 -15 l 150 232 z "},"T":{"ha":833,"x_min":63,"x_max":769,"o":"m 474 0 l 358 0 l 358 901 l 63 901 l 63 1007 l 769 1007 l 769 901 l 474 901 l 474 0 z "},"U":{"ha":833,"x_min":81,"x_max":751,"o":"m 417 -12 q 222 26 294 -12 q 115 157 149 65 q 81 411 81 249 l 81 1010 l 199 1010 l 199 411 q 220 216 199 285 q 291 117 242 146 q 424 88 339 88 q 545 120 500 88 q 610 223 590 153 q 631 411 631 294 l 631 1010 l 751 1010 l 751 411 q 723 178 751 269 q 622 37 695 87 q 417 -12 549 -12 z "},"V":{"ha":833,"x_min":64,"x_max":768,"o":"m 479 0 l 349 0 l 64 1007 l 178 1007 l 418 132 l 651 1007 l 768 1007 l 479 0 z "},"W":{"ha":833,"x_min":72,"x_max":760,"o":"m 324 0 l 156 0 l 72 1007 l 190 1007 l 239 157 l 258 156 l 367 771 l 468 771 l 575 156 l 594 157 l 640 1007 l 760 1007 l 674 0 l 500 0 l 424 482 l 422 518 l 413 518 l 410 482 l 324 0 z "},"X":{"ha":833,"x_min":67,"x_max":768,"o":"m 194 0 l 67 0 l 349 522 l 81 1007 l 217 1007 l 411 628 l 613 1007 l 742 1007 l 478 538 l 768 0 l 638 0 l 415 432 l 194 0 z "},"Y":{"ha":833,"x_min":74,"x_max":758,"o":"m 478 0 l 356 0 l 356 421 l 74 1007 l 203 1007 l 421 531 l 635 1007 l 758 1007 l 478 421 l 478 0 z "},"Z":{"ha":833,"x_min":72,"x_max":768,"o":"m 768 0 l 72 0 l 72 115 l 615 904 l 114 904 l 114 1007 l 747 1007 l 747 899 l 208 101 l 768 101 l 768 0 z "},"a":{"ha":833,"x_min":106,"x_max":727,"o":"m 347 -14 q 171 40 235 -14 q 106 196 106 93 q 229 401 106 346 q 520 457 351 457 l 601 457 l 601 494 q 592 577 601 539 q 544 646 583 615 q 426 678 506 678 q 353 668 387 678 q 293 645 319 659 q 232 609 267 631 l 203 592 l 149 676 q 229 724 192 704 q 318 759 266 744 q 428 775 370 775 q 617 730 554 775 q 698 628 681 685 q 715 504 715 571 l 715 215 q 727 0 715 117 l 616 0 q 613 47 615 16 l 609 104 q 500 14 572 42 q 347 -14 428 -14 m 377 78 q 548 155 494 78 q 601 361 601 231 q 526 364 552 364 q 294 326 367 364 q 222 206 222 288 q 263 109 222 140 q 377 78 304 78 z "},"b":{"ha":833,"x_min":110,"x_max":724,"o":"m 435 -14 q 316 11 365 -14 q 228 96 267 37 l 224 0 l 110 0 q 114 165 114 79 l 114 1097 l 231 1097 l 231 628 q 324 732 269 695 q 450 768 380 768 q 603 715 542 768 q 694 570 664 663 q 724 358 724 478 q 691 175 724 260 q 592 38 658 90 q 435 -14 527 -14 m 411 78 q 524 116 480 78 q 587 216 567 154 q 607 350 607 277 q 564 580 607 492 q 426 668 521 668 q 276 579 326 668 q 226 347 226 490 q 245 217 226 278 q 306 117 264 156 q 411 78 347 78 z "},"c":{"ha":833,"x_min":113,"x_max":721,"o":"m 464 -7 q 281 39 360 -7 q 157 173 201 85 q 113 381 113 260 q 159 589 113 500 q 288 726 206 678 q 475 774 370 774 q 615 741 552 774 q 711 664 677 709 l 638 586 q 567 644 604 622 q 476 665 531 665 q 350 630 406 665 q 264 530 295 594 q 233 385 233 467 q 263 239 233 304 q 344 137 292 174 q 465 100 397 100 q 565 128 520 100 q 650 200 610 156 l 721 121 q 656 58 689 85 q 574 12 623 31 q 464 -7 526 -7 z "},"d":{"ha":833,"x_min":103,"x_max":731,"o":"m 394 -8 q 232 50 297 -8 q 134 199 166 108 q 103 392 103 290 q 138 574 103 486 q 239 718 172 663 q 395 774 306 774 q 518 747 460 774 q 610 658 576 720 l 610 1097 l 726 1097 l 726 167 q 727 110 726 142 q 728 60 728 78 l 731 0 l 624 0 l 610 103 q 519 17 567 42 q 394 -8 470 -8 m 424 82 q 534 129 492 82 q 593 244 576 176 q 610 386 610 313 q 590 526 610 459 q 524 636 569 592 q 408 679 479 679 q 302 635 345 679 q 239 524 259 591 q 218 389 218 457 q 241 246 218 317 q 311 128 265 175 q 424 82 358 82 z "},"e":{"ha":833,"x_min":102,"x_max":731,"o":"m 444 -11 q 265 38 343 -11 q 145 174 188 86 q 102 376 102 263 q 145 584 102 492 q 265 726 189 675 q 433 778 340 778 q 589 729 522 778 q 694 583 656 680 q 731 349 731 487 l 224 349 q 280 163 224 226 q 442 100 336 100 q 571 123 512 100 q 663 172 630 146 l 722 81 q 651 36 695 58 q 552 2 606 15 q 444 -11 497 -11 m 620 454 q 595 566 620 517 q 527 641 571 615 q 430 668 484 668 q 328 641 375 668 q 255 566 282 615 q 227 454 227 517 l 620 454 z "},"é":{"ha":833,"x_min":102,"x_max":731,"o":"m 444 -11 q 265 38 343 -11 q 145 174 188 86 q 102 376 102 263 q 145 584 102 492 q 265 726 189 675 q 433 778 340 778 q 589 729 522 778 q 694 583 656 680 q 731 349 731 487 l 224 349 q 280 163 224 226 q 442 100 336 100 q 571 123 512 100 q 663 172 630 146 l 722 81 q 651 36 695 58 q 552 2 606 15 q 444 -11 497 -11 m 620 454 q 595 566 620 517 q 527 641 571 615 q 430 668 484 668 q 328 641 375 668 q 255 566 282 615 q 227 454 227 517 l 620 454 m 567 1138 l 387 853 l 288 853 l 410 1138 l 567 1138 z "},"f":{"ha":833,"x_min":110,"x_max":724,"o":"m 311 0 l 311 617 l 110 617 l 110 718 l 311 718 l 311 847 q 343 998 311 943 q 432 1075 374 1053 q 575 1097 489 1097 q 724 1092 663 1097 l 724 983 q 596 989 657 989 q 505 980 541 989 q 449 942 469 970 q 428 860 428 914 l 428 718 l 657 718 l 657 617 l 428 617 l 428 0 l 311 0 z "},"g":{"ha":833,"x_min":83,"x_max":751,"o":"m 751 765 l 751 660 l 610 660 q 641 600 631 635 q 651 531 651 565 q 618 399 651 460 q 527 301 585 338 q 395 264 469 264 q 323 273 356 264 q 259 299 290 283 q 218 265 229 283 q 206 215 206 247 q 243 163 206 179 q 337 147 279 147 q 417 149 361 147 l 478 150 q 638 107 574 150 q 695 42 676 81 q 715 -46 715 3 q 690 -143 715 -98 q 620 -222 666 -189 q 508 -273 575 -255 q 376 -292 442 -292 q 257 -277 311 -292 q 162 -235 202 -262 q 83 -96 83 -180 q 107 -2 83 -47 q 167 79 131 43 q 119 132 134 103 q 105 199 105 160 q 122 278 105 243 q 178 351 138 313 l 178 365 q 157 390 170 370 q 134 445 144 410 q 124 526 124 480 q 160 655 124 598 q 259 745 196 713 q 402 778 323 778 q 476 765 446 778 l 751 765 m 388 368 q 495 409 457 368 q 534 524 534 450 q 495 640 534 597 q 388 683 456 683 q 312 664 346 683 q 259 609 278 645 q 240 524 240 572 q 280 409 240 451 q 388 368 321 368 m 274 44 q 224 -8 242 24 q 206 -75 206 -40 q 381 -187 206 -187 q 542 -150 490 -187 q 580 -110 567 -133 q 592 -60 592 -87 q 555 15 592 -9 q 467 39 518 39 q 428 38 449 39 q 398 37 407 37 q 347 35 371 35 q 274 44 315 35 z "},"h":{"ha":833,"x_min":111,"x_max":722,"o":"m 111 0 l 111 1097 l 232 1097 l 232 654 q 339 745 275 713 q 472 778 403 778 q 663 706 604 778 q 722 499 722 634 l 722 0 l 601 0 l 601 446 q 590 567 601 518 q 544 646 579 615 q 439 676 508 676 q 283 581 333 676 q 232 331 232 485 l 232 0 l 111 0 z "},"i":{"ha":833,"x_min":145,"x_max":688,"o":"m 413 917 q 342 938 363 917 q 322 1008 322 958 q 342 1079 322 1058 q 413 1100 363 1100 q 484 1079 463 1100 q 505 1008 505 1058 q 484 938 505 958 q 413 917 463 917 m 488 764 l 488 103 l 688 103 l 688 0 l 159 0 l 159 103 l 370 103 l 370 667 l 145 667 l 145 764 l 488 764 z "},"j":{"ha":833,"x_min":161,"x_max":672,"o":"m 581 917 q 510 938 531 917 q 489 1008 489 958 q 510 1079 489 1058 q 581 1100 531 1100 q 651 1079 631 1100 q 672 1008 672 1058 q 651 938 672 958 q 581 917 631 917 m 276 1 q 314 -130 276 -83 q 419 -176 352 -176 q 493 -152 462 -176 q 540 -90 524 -128 q 556 -12 556 -51 l 556 671 l 300 671 l 300 764 l 672 764 l 672 -10 q 641 -152 672 -92 q 553 -245 610 -213 q 421 -278 497 -278 q 286 -245 344 -278 q 194 -149 227 -212 q 161 1 161 -85 l 276 1 z "},"k":{"ha":833,"x_min":121,"x_max":713,"o":"m 350 383 l 713 0 l 564 0 l 238 344 l 238 0 l 121 0 l 121 1097 l 238 1097 l 238 417 l 542 764 l 686 764 l 350 383 z "},"l":{"ha":833,"x_min":92,"x_max":741,"o":"m 572 -17 q 434 7 485 -17 q 359 82 383 30 q 335 221 335 133 l 335 1007 l 92 1007 l 92 1097 l 452 1097 l 452 225 q 467 137 452 167 q 513 98 482 108 q 598 88 543 88 q 669 97 628 88 q 741 124 710 107 l 741 14 q 654 -10 690 -3 q 572 -17 618 -17 z "},"m":{"ha":833,"x_min":73,"x_max":760,"o":"m 81 583 q 73 764 81 642 l 181 764 l 190 675 q 240 751 208 726 q 319 775 272 775 q 392 745 360 775 q 433 636 424 715 q 491 745 450 716 q 595 774 533 774 q 677 746 639 774 q 738 665 715 718 q 760 539 760 612 l 760 0 l 638 0 l 638 510 q 621 635 638 597 q 567 674 604 674 q 484 524 484 674 l 484 0 l 360 0 l 360 510 q 339 634 360 594 q 278 674 317 674 q 225 640 243 674 q 206 524 206 607 l 206 0 l 81 0 l 81 583 z "},"n":{"ha":833,"x_min":111,"x_max":722,"o":"m 119 565 q 117 658 119 613 q 114 714 115 703 l 111 764 l 219 764 l 229 625 q 333 737 270 697 q 471 778 397 778 q 659 691 595 778 q 722 451 722 605 l 722 0 l 606 0 l 606 396 q 593 537 606 478 q 543 633 581 596 q 438 669 506 669 q 321 623 366 669 q 256 502 276 576 q 236 347 236 429 l 236 0 l 119 0 l 119 565 z "},"o":{"ha":833,"x_min":106,"x_max":728,"o":"m 417 -8 q 251 40 322 -8 q 143 177 181 88 q 106 386 106 266 q 143 594 106 506 q 252 730 181 683 q 418 778 322 778 q 583 730 513 778 q 690 594 653 683 q 728 386 728 506 q 690 177 728 266 q 583 40 653 88 q 417 -8 513 -8 m 413 92 q 517 127 472 92 q 585 227 561 162 q 608 381 608 292 q 585 538 608 472 q 517 641 561 605 q 413 676 472 676 q 313 640 356 676 q 248 537 271 604 q 225 379 225 470 q 248 226 225 291 q 313 126 271 161 q 413 92 356 92 z "},"p":{"ha":833,"x_min":105,"x_max":728,"o":"m 110 594 q 106 750 110 670 l 105 764 l 217 764 l 223 638 q 318 742 263 707 q 449 778 374 778 q 606 719 543 778 q 699 570 669 660 q 728 385 728 480 q 696 195 728 285 q 597 48 663 105 q 434 -8 531 -8 q 315 14 361 -8 q 227 94 269 37 l 227 -264 l 110 -264 l 110 594 m 409 88 q 526 130 481 88 q 592 237 572 172 q 612 375 612 302 q 594 513 612 443 q 533 630 576 582 q 423 678 490 678 q 315 630 360 678 q 247 510 270 581 q 224 371 224 438 q 244 238 224 303 q 306 130 265 173 q 409 88 348 88 z "},"q":{"ha":833,"x_min":106,"x_max":727,"o":"m 605 90 q 517 9 565 33 q 397 -14 469 -14 q 233 44 298 -14 q 137 192 167 102 q 106 381 106 282 q 138 573 106 481 q 234 721 170 664 q 387 778 297 778 q 519 753 466 778 q 609 668 573 729 l 613 764 l 727 764 l 726 739 q 722 614 722 643 l 722 -265 l 605 -265 l 605 90 m 422 78 q 523 123 481 78 q 586 238 565 168 q 608 381 608 308 q 582 547 608 479 q 510 648 556 615 q 408 682 465 682 q 310 645 351 682 q 245 541 268 609 q 223 381 223 474 q 246 219 223 287 q 314 114 269 151 q 422 78 359 78 z "},"r":{"ha":833,"x_min":103,"x_max":730,"o":"m 241 0 l 241 399 q 237 569 241 519 q 226 663 233 619 l 103 663 l 103 764 l 316 764 l 327 626 q 418 740 359 703 q 540 778 476 778 q 643 756 589 778 q 730 704 698 735 l 666 619 q 607 658 647 640 q 520 676 568 676 q 426 640 461 676 q 374 527 390 603 q 358 329 358 451 l 358 0 l 241 0 z "},"s":{"ha":833,"x_min":127,"x_max":706,"o":"m 417 -6 q 251 27 317 -6 q 127 126 184 60 l 199 203 q 268 144 238 165 q 335 111 297 123 q 424 100 372 100 q 547 126 494 100 q 601 215 601 152 q 583 267 601 248 q 539 295 566 285 q 460 316 512 304 q 394 332 408 328 q 258 377 310 355 q 171 442 206 399 q 135 556 135 485 q 174 679 135 629 q 277 753 213 729 q 416 778 340 778 q 667 685 576 778 l 595 603 q 419 665 517 665 q 333 653 372 665 q 272 617 294 640 q 249 561 249 594 q 283 494 249 521 q 364 451 317 467 q 480 419 410 436 q 584 390 542 405 q 666 332 626 374 q 706 215 706 289 q 665 84 706 133 q 558 15 623 35 q 417 -6 493 -6 z "},"t":{"ha":833,"x_min":124,"x_max":710,"o":"m 524 -11 q 374 35 424 -11 q 325 167 325 81 l 325 664 l 124 664 l 124 764 l 325 764 l 325 1042 l 442 1042 l 442 764 l 653 764 l 653 664 l 442 664 l 442 208 q 453 138 442 163 q 492 104 465 114 q 569 94 519 94 q 633 102 592 94 q 710 117 675 109 l 710 11 q 524 -11 590 -11 z "},"u":{"ha":833,"x_min":116,"x_max":717,"o":"m 359 -10 q 173 60 229 -10 q 116 264 116 129 l 116 764 l 233 764 l 233 311 q 243 191 233 238 q 287 114 253 144 q 390 85 322 85 q 506 123 460 85 q 573 220 552 160 q 594 350 594 281 l 594 764 l 713 764 l 713 165 q 716 53 713 119 q 717 0 716 38 l 608 0 l 602 101 q 500 17 563 44 q 359 -10 438 -10 z "},"v":{"ha":833,"x_min":110,"x_max":724,"o":"m 483 0 l 350 0 l 110 764 l 244 764 l 417 163 l 596 764 l 724 764 l 483 0 z "},"w":{"ha":833,"x_min":53,"x_max":780,"o":"m 566 160 l 663 764 l 780 764 l 644 0 l 527 0 l 423 486 l 308 0 l 187 0 l 53 764 l 176 764 l 266 144 l 373 632 l 474 632 l 566 160 z "},"x":{"ha":833,"x_min":107,"x_max":726,"o":"m 231 0 l 107 0 l 351 382 l 121 764 l 251 764 l 417 481 l 594 764 l 715 764 l 485 390 l 726 0 l 593 0 l 417 296 l 231 0 z "},"y":{"ha":833,"x_min":104,"x_max":729,"o":"m 618 764 l 729 764 l 637 472 l 594 339 q 541 156 575 278 q 479 -51 495 -9 q 400 -197 443 -148 q 320 -259 356 -246 q 244 -276 284 -273 q 179 -274 232 -277 q 104 -269 126 -272 l 104 -156 q 172 -161 124 -159 q 242 -162 219 -162 q 313 -139 285 -162 q 353 -81 340 -115 q 365 -19 365 -48 q 343 86 365 10 q 288 256 322 161 q 233 413 289 252 q 184 555 225 436 q 108 764 142 673 l 231 764 l 432 164 l 618 764 z "},"z":{"ha":833,"x_min":110,"x_max":723,"o":"m 723 0 l 110 0 l 110 107 l 548 661 l 110 661 l 110 764 l 706 764 l 706 676 l 259 104 l 723 104 l 723 0 z "},".":{"ha":833,"x_min":289,"x_max":544,"o":"m 417 -28 q 323 7 358 -28 q 289 100 289 41 q 323 194 289 160 q 417 228 358 228 q 510 194 476 228 q 544 100 544 160 q 510 7 544 41 q 417 -28 476 -28 z "},":":{"ha":833,"x_min":289,"x_max":544,"o":"m 417 0 q 323 34 358 0 q 289 128 289 69 q 323 222 289 188 q 417 256 358 256 q 510 222 476 256 q 544 128 544 188 q 510 34 544 69 q 417 0 476 0 m 417 508 q 323 543 358 508 q 289 636 289 577 q 323 730 289 696 q 417 764 358 764 q 510 730 476 764 q 544 636 544 696 q 510 543 544 577 q 417 508 476 508 z "},"/":{"ha":833,"x_min":136,"x_max":751,"o":"m 136 -264 l 624 1076 l 751 1076 l 264 -264 l 136 -264 z "},"-":{"ha":833,"x_min":139,"x_max":696,"o":"m 696 314 l 139 314 l 139 453 l 696 453 l 696 314 z "},"@":{"ha":833,"x_min":48,"x_max":779,"o":"m 471 -260 q 212 -191 303 -260 q 84 19 121 -122 q 48 398 48 160 q 83 777 48 633 q 203 993 117 922 q 443 1065 290 1065 q 625 1025 557 1065 q 725 901 694 985 q 756 682 756 817 l 756 174 q 763 85 756 141 q 776 0 769 29 l 667 0 l 653 76 q 594 15 639 39 q 497 -8 549 -8 q 373 45 422 -8 q 301 188 324 99 q 278 381 278 276 q 332 640 278 544 q 494 736 385 736 q 581 722 540 736 q 646 681 621 708 l 646 719 q 635 816 646 767 q 581 910 625 866 q 447 953 537 953 q 284 886 344 953 q 199 689 224 819 q 174 359 174 560 q 204 47 174 151 q 311 -99 234 -58 q 543 -140 388 -140 l 779 -140 l 779 -260 l 471 -260 m 526 85 q 595 108 568 85 q 634 165 622 132 q 646 226 646 197 l 646 519 q 615 616 646 582 q 528 650 583 650 q 454 624 482 650 q 413 538 426 597 q 399 377 399 478 q 414 205 399 269 q 456 113 428 140 q 526 85 484 85 z "}}}
